<svg aria-hidden="true" style="position:absolute;width:0;height:0" xmlns="http://www.w3.org/2000/svg" overflow="hidden">
  <defs>
    <symbol id="icon-filter" viewBox="0 0 32 32">
      <path fill="none" stroke="var(--color1, #3d5278)" stroke-linejoin="round" stroke-linecap="round" stroke-miterlimit="10" stroke-width="2" d="M29.333 8.667h-8M8 8.667H2.667M13.333 13.333a4.667 4.667 0 1 0 0-9.334 4.667 4.667 0 0 0 0 9.334zM29.333 23.333H24M10.667 23.333h-8M18.667 28a4.667 4.667 0 1 0 0-9.334 4.667 4.667 0 0 0 0 9.334z"/>
    </symbol>
    <symbol id="icon-car-manual" viewBox="0 0 32 32">
      <path fill="var(--color2, #90a3bf)" d="M16 2.286C8.43 2.286 2.286 8.43 2.286 16S8.43 29.714 16 29.714 29.714 23.57 29.714 16 23.584 2.286 16 2.286z"/>
      <path fill="var(--color3, #fff)" d="M16 4.571c6.312 0 11.429 5.117 11.429 11.429S22.312 27.429 16 27.429 4.571 22.312 4.571 16 9.688 4.571 16 4.571z"/>
      <path fill="var(--color2, #90a3bf)" d="M16 6.857c-5.047 0-9.143 4.096-9.143 9.143s4.096 9.143 9.143 9.143c5.047 0 9.143-4.096 9.143-9.143S21.056 6.857 16 6.857z"/>
      <path fill="var(--color2, #90a3bf)" d="M18.286 13.714h9.143v4.571h-9.143v-4.571zM4.571 13.714h9.143v4.571H4.571v-4.571zM13.714 18.286h4.571v9.143h-4.571v-9.143z"/>
      <path fill="var(--color3, #fff)" d="M16 9.143a6.857 6.857 0 1 1 0 13.714 6.857 6.857 0 0 1 0-13.714z"/>
    </symbol>
    <symbol id="icon-fill-actions-star" viewBox="0 0 32 32">
      <path fill="var(--color4, #fbad39)" d="M14.667 4.254a1.439 1.439 0 0 1 2.746 0l2.48 7.627h8a1.452 1.452 0 0 1 .853 2.666l-6.493 4.707 2.48 7.64a1.436 1.436 0 0 1-.52 1.626 1.443 1.443 0 0 1-1.707-.012l-6.507-4.76-6.493 4.72a1.436 1.436 0 0 1-1.707.012 1.44 1.44 0 0 1-.52-1.626l2.48-7.64-6.493-4.707a1.455 1.455 0 0 1-.586-1.657 1.455 1.455 0 0 1 1.439-1.009h8l2.547-7.587z"/>
    </symbol>
    <symbol id="icon-heart" viewBox="0 0 32 32">
      <path fill="var(--color5, #ed3f3f)" d="M21.92 4.133A7.4 7.4 0 0 0 16 7.106a7.4 7.4 0 0 0-5.92-2.973c-4.093 0-7.413 3.333-7.413 7.453 0 1.587.253 3.053.693 4.413 2.107 6.667 8.6 10.653 11.813 11.747.453.16 1.2.16 1.653 0 3.213-1.093 9.707-5.08 11.813-11.747.44-1.36.693-2.827.693-4.413 0-4.12-3.32-7.453-7.413-7.453z"/>
    </symbol>
    <symbol id="icon-actions-star" viewBox="0 0 32 32">
      <path fill="none" stroke="var(--color6, #c3d4e9)" stroke-linejoin="round" stroke-linecap="round" stroke-width="4" d="M14.667 4.254a1.439 1.439 0 0 1 2.746 0l2.48 7.627h8a1.452 1.452 0 0 1 .853 2.666l-6.493 4.707 2.48 7.64a1.436 1.436 0 0 1-.52 1.626 1.443 1.443 0 0 1-1.707-.012l-6.507-4.76-6.493 4.72a1.436 1.436 0 0 1-1.707.012 1.44 1.44 0 0 1-.52-1.626l2.48-7.64-6.493-4.707a1.455 1.455 0 0 1-.586-1.657 1.455 1.455 0 0 1 1.439-1.009h8l2.547-7.587z"/>
    </symbol>
    <symbol id="icon-menu" viewBox="0 0 32 32">
      <path fill="none" stroke="var(--color1, #3d5278)" stroke-linecap="round" stroke-width="2" d="M4 9.333h24M4 16h24M4 22.667h24"/>
    </symbol>
    <symbol id="icon-notification" viewBox="0 0 32 32">
      <path fill="var(--color1, #3d5278)" d="M25.787 19.32l-1.333-2.213c-.28-.493-.533-1.427-.533-1.973v-3.373c0-3.133-1.84-5.84-4.493-7.107-.693-1.227-1.973-1.987-3.44-1.987-1.453 0-2.76.787-3.453 2.027-2.6 1.293-4.4 3.973-4.4 7.067v3.373c0 .547-.253 1.48-.533 1.96l-1.347 2.227c-.533.893-.653 1.88-.32 2.787.32.893 1.08 1.587 2.067 1.92 2.587.88 5.307 1.307 8.027 1.307s5.44-.427 8.027-1.293c.933-.307 1.653-1.013 2-1.933s.253-1.933-.267-2.787zM19.773 26.68A4.018 4.018 0 0 1 16 29.333a3.956 3.956 0 0 1-2.827-1.187 3.668 3.668 0 0 1-.933-1.48c.173.027.347.04.533.067.307.04.627.08.947.107.76.067 1.533.107 2.307.107.76 0 1.52-.04 2.267-.107.28-.027.56-.04.827-.08l.653-.08z"/>
    </symbol>
    <symbol id="icon-profile-2user" viewBox="0 0 32 32">
      <path fill="var(--color2, #90a3bf)" d="M12 2.667A6.339 6.339 0 0 0 5.667 9c0 3.427 2.68 6.2 6.173 6.32a1.1 1.1 0 0 1 .293 0h.094A6.318 6.318 0 0 0 18.334 9a6.339 6.339 0 0 0-6.333-6.333zM18.773 18.867c-3.72-2.48-9.787-2.48-13.533 0C3.547 20 2.613 21.534 2.613 23.174s.933 3.16 2.613 4.28c1.867 1.253 4.32 1.88 6.773 1.88s4.907-.627 6.773-1.88c1.68-1.133 2.613-2.653 2.613-4.306-.013-1.64-.933-3.16-2.613-4.28zM26.653 9.786c.213 2.587-1.627 4.853-4.173 5.16h-.067c-.08 0-.16 0-.227.027-1.293.067-2.48-.347-3.373-1.107 1.373-1.227 2.16-3.067 2-5.067a6.186 6.186 0 0 0-1.027-2.907 4.787 4.787 0 0 1 6.866 3.893z"/>
      <path fill="var(--color2, #90a3bf)" d="M29.32 22.119c-.107 1.293-.933 2.413-2.32 3.173-1.334.733-3.014 1.08-4.68 1.04.96-.867 1.52-1.947 1.627-3.093.134-1.653-.653-3.24-2.227-4.507-.893-.707-1.933-1.267-3.067-1.68 2.947-.853 6.653-.28 8.933 1.56 1.227.987 1.854 2.227 1.733 3.507z"/>
    </symbol>
    <symbol id="icon-rectangle" viewBox="0 0 16 32">
      <path fill="var(--color3, #fff)" opacity=".06" d="M5.614 15.863L.256 0h10.716l5.358 15.863-5.358 15.863H.256l5.358-15.863z"/>
    </symbol>
    <symbol id="icon-search" viewBox="0 0 32 32">
      <path fill="none" stroke="var(--color1, #3d5278)" stroke-linejoin="round" stroke-linecap="round" stroke-width="2" d="M15.333 28C22.329 28 28 22.329 28 15.333S22.329 2.666 15.333 2.666c-6.996 0-12.667 5.671-12.667 12.667S8.337 28 15.333 28zM29.333 29.333l-2.667-2.667"/>
    </symbol>
    <symbol id="icon-fuel" viewBox="0 0 34 32">
      <path fill="var(--color2, #90a3bf)" d="M32.078 10.936L29.206 9.5c-.531-.258-1.192-.057-1.45.474a1.069 1.069 0 0 0 .474 1.45l2.283 1.134v6.878l-5.385.014V4.718c0-2.872-1.924-4.308-4.308-4.308H9.333c-2.384 0-4.308 1.436-4.308 4.308v23.333H2.871c-.589 0-1.077.488-1.077 1.077s.488 1.077 1.077 1.077h24.41c.589 0 1.077-.488 1.077-1.077s-.488-1.077-1.077-1.077h-2.154v-6.447l6.462-.014c.603 0 1.077-.488 1.077-1.077v-8.615c0-.402-.23-.775-.589-.962zM8.616 7.433c0-1.996 1.22-2.714 2.714-2.714h7.51c1.479 0 2.7.718 2.7 2.714v1.766c0 1.982-1.221 2.7-2.714 2.7h-7.495c-1.493 0-2.714-.718-2.714-2.714V7.433zm.718 7.696h4.308c.589 0 1.077.488 1.077 1.077s-.488 1.077-1.077 1.077H9.334c-.589 0-1.077-.488-1.077-1.077s.488-1.077 1.077-1.077z"/>
    </symbol>
    <symbol id="icon-heart-stroke" viewBox="0 0 35 32">
      <path fill="none" stroke="var(--color2, #90a3bf)" stroke-linejoin="round" stroke-linecap="round" stroke-width="2.4" d="M18.592 30.095c-.544.192-1.44.192-1.984 0C11.968 28.511 1.6 21.903 1.6 10.703c0-4.944 3.984-8.944 8.896-8.944A8.825 8.825 0 0 1 17.6 5.343a8.847 8.847 0 0 1 7.104-3.584c4.912 0 8.896 4 8.896 8.944 0 11.2-10.368 17.808-15.008 19.392z"/>
    </symbol>
    <symbol id="icon-heart-fill" viewBox="0 0 36 32">
      <path fill="var(--color1, #3d5278)" d="M25.671.177a9.862 9.862 0 0 0-7.893 3.964A9.865 9.865 0 0 0 9.885.177C4.427.177.001 4.621.001 10.115c0 2.116.338 4.071.924 5.884 2.809 8.889 11.467 14.204 15.751 15.662.604.213 1.6.213 2.204 0 4.284-1.458 12.942-6.773 15.751-15.662.587-1.813.924-3.769.924-5.884 0-5.493-4.427-9.938-9.884-9.938z"/>
    </symbol>
    <symbol id="icon-setting" viewBox="0 0 34 32">
      <path fill="var(--color1, #3d5278)" d="M28.96 11.553c-2.896 0-4.08-2.048-2.64-4.56a3.035 3.035 0 0 0-1.12-4.144l-2.768-1.584c-1.264-.752-2.896-.304-3.648.96l-.176.304c-1.44 2.512-3.808 2.512-5.264 0l-.176-.304a2.626 2.626 0 0 0-3.616-.96L6.784 2.849c-1.456.832-1.952 2.704-1.12 4.16 1.456 2.496.272 4.544-2.624 4.544A3.049 3.049 0 0 0 0 14.593v2.816c0 1.664 1.36 3.04 3.04 3.04 2.896 0 4.08 2.048 2.624 4.56a3.035 3.035 0 0 0 1.12 4.144l2.768 1.584c1.264.752 2.896.304 3.648-.96l.176-.304c1.44-2.512 3.808-2.512 5.264 0l.176.304c.752 1.264 2.384 1.712 3.648.96l2.768-1.584a3.038 3.038 0 0 0 1.12-4.144c-1.456-2.512-.272-4.56 2.624-4.56 1.664 0 3.04-1.36 3.04-3.04v-2.816c-.016-1.664-1.376-3.04-3.056-3.04zM16 21.201c-2.864 0-5.2-2.336-5.2-5.2s2.336-5.2 5.2-5.2 5.2 2.336 5.2 5.2a5.21 5.21 0 0 1-5.2 5.2z"/>
    </symbol>
  </defs>
</svg>
